<svg version="1.1" viewBox="0.0 0.0 960.0 720.0" fill="none" stroke="none" stroke-linecap="square" stroke-miterlimit="10" xmlns:xlink="http://www.w3.org/1999/xlink" xmlns="http://www.w3.org/2000/svg"><clipPath id="p.0"><path d="m0 0l960.0 0l0 720.0l-960.0 0l0 -720.0z" clip-rule="nonzero"/></clipPath><g clip-path="url(#p.0)"><path fill="#000000" fill-opacity="0.0" d="m0 0l960.0 0l0 720.0l-960.0 0z" fill-rule="evenodd"/><path fill="#000000" fill-opacity="0.0" d="m168.26772 188.70866l623.4646 0l0 342.58264l-623.4646 0z" fill-rule="evenodd"/><path fill="#ffd966" d="m232.0667 502.41177q-11.34375 0.28125 -19.015625 -4.234375q-7.6875 -4.515625 -11.90625 -12.828125q-4.234375 -8.3125 -5.328125 -19.4375q-1.09375 -11.125 -0.03125 -24.109375q1.390625 -10.09375 4.875 -20.875q3.0 -9.234375 9.09375 -20.328125q6.078125 -11.09375 18.03125 -23.359375q4.828125 1.203125 6.640625 2.109375q1.8125 0.890625 3.296875 2.375q1.34375 1.8125 1.921875 3.5q0.84375 4.65625 -1.59375 8.90625q-2.421875 4.25 -4.4375 8.296875q-5.546875 11.59375 -8.3125 21.90625q-2.765625 10.3125 -3.515625 19.015625q-0.5 7.421875 0.109375 13.453125q0.625 6.03125 1.78125 10.109375q1.171875 4.09375 1.46875 6.234375q0.3125 2.15625 0.3125 0.375q0 1.484375 0.3125 -0.125q0.3125 -1.59375 1.515625 -3.96875q1.453125 -2.4375 3.453125 -7.5625q2.0 -5.125 4.296875 -12.046875q2.3125 -6.9375 4.5 -15.03125q2.1875 -8.09375 3.984375 -16.328125q3.65625 -16.625 7.84375 -37.703125q4.1875 -21.09375 12.312515 -44.15625q2.578125 -9.609375 6.515625 -21.15625q3.140625 -9.9375 7.984375 -23.15625q4.859375 -13.234375 10.828125 -27.921875q0 -2.984375 3.375 -4.765625q3.375 -1.796875 6.40625 -3.171875q3.3125 -1.3906097 7.34375 -2.7343597q5.6875 -1.984375 9.65625 -2.328125q3.984375 -0.34375 6.765625 1.515625q2.78125 1.84375 3.609375 4.5468597q0.84375 2.703125 0.84375 5.28125q0.515625 8.5625 0.640625 16.140625q0.140625 7.5625 0.390625 13.25q0.265625 6.859375 0.265625 12.328125q0.265625 7.484375 -0.796875 19.71875q-1.046875 12.234375 -2.21875 25.5q-1.171875 13.265625 -2.0625 25.734375q-0.890625 12.46875 -0.390625 20.65625q0 4.34375 0.375 7.984375q0.375 3.625 -2.84375 4.0q-0.875 -7.09375 3.3125 -17.4375q4.1875 -10.34375 8.375 -19.875q4.1875 -9.546875 7.796875 -17.703125q3.625 -8.171875 5.703125 -13.609375q3.1875 -7.421875 8.40625 -18.65625q5.21875 -11.234375 10.5625 -22.4375q5.359375 -11.21875 9.953125 -20.65625q4.59375 -9.453125 6.75 -13.25q2.171875 -3.609375 6.578125 -6.046875q4.421875 -2.4374847 9.03125 -4.1093597q4.625 -1.6875 9.15625 -2.46875q4.546875 -0.78125 6.625 0.046875q4.15625 0.953125 6.265625 2.890625q2.109375 1.9218597 2.734375 3.1249847q0.84375 1.75 1.171875 4.8125q0.328125 3.046875 -0.234375 8.640625q-0.53125 6.4375 -3.03125 19.328125q-2.5 12.890625 -6.03125 29.203125q-3.515625 16.296875 -7.546875 34.78125q-4.03125 18.46875 -7.671875 36.265625q-3.640625 17.796875 -6.359375 33.296875q-2.703125 15.484375 -3.453125 25.890625q-0.5 11.359375 1.46875 19.984375q0.703125 3.546875 2.03125 6.640625q1.34375 3.09375 3.34375 5.203125q2.0 2.109375 4.734375 3.078125q2.75 0.984375 23.203125 -1.140625q-20.671875 14.03125 -27.515625 16.3125q-6.84375 2.28125 -13.421875 2.28125q-7.40625 0.28125 -13.234375 -2.328125q-5.8125 -2.59375 -9.8125 -7.34375q-3.984375 -4.75 -5.765625 -11.140625q-1.78125 -6.375 -1.1875 -13.890625q0.53125 -6.5 3.421875 -20.953125q2.90625 -14.46875 6.9375 -32.609375q4.046875 -18.15625 8.875 -37.828125q4.828125 -19.6875 9.125 -37.0q4.296875 -17.328125 7.40625 -29.78125q3.109375 -12.453125 3.859375 -16.203125q0.5 -3.0 0.90625 -5.828125q0.40625 -2.828125 5.015625 -4.09375q1.09375 7.09375 -2.6875 14.390625q-3.765625 7.296875 -7.921875 15.59375q-4.15625 8.296875 -8.453125 17.265625q-4.28125 8.953125 -8.1875 17.296875q-6.46875 13.484375 -12.6875 27.609375q-6.21875 14.125 -11.140625 26.78125q-4.90625 12.65625 -8.078125 22.546875q-3.15625 9.875 -3.625 14.703125l0 3.4375q0 1.4375 0.109375 3.234375q0.125 1.796875 1.28125 5.890625l-13.1875 10.21875q-3.0625 1.015625 -5.078125 1.640625q-2.015625 0.625 -4.203125 0.625q-8.546875 0 -12.796875 -8.484375q-3.4375 -6.296875 -6.140625 -23.515625q-2.6875 -17.234375 -1.625 -41.859375q0.53125 -12.078125 1.703125 -24.390625q1.171875 -12.3125 2.34375 -23.515625q1.171875 -11.203125 2.203125 -20.859375q1.046875 -9.65625 1.046875 -16.5625q0.234375 -4.96875 -0.265625 -9.0625q-0.484375 -4.109375 2.671875 -4.515625q2.046875 3.515625 -0.78125 13.6875q-2.828125 10.15625 -5.953125 22.625q-3.109375 12.453125 -6.359375 26.25q-3.25 13.78125 -6.25 26.546875q-2.984375 12.765625 -5.59375 23.578125q-2.59375 10.796875 -4.171875 17.328125q-2.578125 10.328125 -5.203125 23.6875q-2.609375 13.34375 -6.671875 25.65625q-4.046875 12.3125 -11.125015 21.578125q-7.0625 9.265625 -18.953125 9.59375zm259.09656 -205.09375q-1.0 3.65625 -3.71875 7.0q-2.71875 3.34375 -6.09375 5.4375q-3.359375 2.09375 -7.578125 2.859375q-4.21875 0.75 -7.453125 -2.015625q-6.90625 -5.25 -7.25 -11.671875q-0.34375 -6.421875 2.78125 -11.59375q3.140625 -5.1875 7.75 -8.71875q4.625 -3.53125 8.46875 -4.25q4.84375 -0.859375 7.9375 1.828125q3.109375 2.6875 4.453125 6.234375q1.34375 3.53125 1.5 7.609375q0.171875 4.0625 -0.796875 7.28125zm-43.15625 51.703125q2.140625 -2.578125 6.515625 -3.828125q4.375 -1.265625 8.53125 -1.953125q4.15625 -0.6875 8.0625 -0.84375q3.921875 -0.171875 6.0625 0.90625q2.40625 2.546875 0.484375 8.9375q-1.90625 6.375 -4.265625 13.453125q-2.359375 7.078125 -4.953125 14.453125q-2.578125 7.375 -3.84375 11.921875q-1.328125 4.75 -3.140625 10.59375q-1.8125 5.828125 -3.203125 11.234375q-1.375 5.40625 -1.8125 9.609375q-0.4375 4.1875 0.375 5.828125q0.921875 2.203125 1.484375 2.625q0.5625 0.421875 0.984375 0.421875q3.875 0 11.140625 -5.25q7.28125 -5.25 15.296875 -13.015625q8.03125 -7.78125 14.921875 -15.8125q6.90625 -8.046875 10.25 -12.9375q2.9062195 -3.65625 6.7030945 -5.0q3.8125 -1.34375 6.9375 0.921875q3.125 2.265625 3.328125 6.21875q0.21875 3.953125 -2.21875 8.140625q-4.328125 7.546875 -12.5625 17.796875q-8.2343445 10.234375 -17.546844 19.671875q-9.296875 9.421875 -18.65625 16.40625q-9.34375 6.984375 -16.0625 7.3125q-5.328125 0.3125 -10.375 -1.6875q-5.046875 -1.984375 -9.09375 -5.421875q-4.046875 -3.453125 -6.828125 -8.21875q-2.765625 -4.78125 -3.0625 -10.078125q-0.8125 -6.765625 -0.015625 -18.390625q0.8125 -11.640625 2.921875 -23.71875q2.125 -12.078125 5.53125 -23.265625q3.40625 -11.1875 8.109375 -17.03125zm107.62735 87.515625q6.84375 0 15.9375 -5.9375q9.109375 -5.9375 18.125 -14.328125q9.03125 -8.390625 16.5625 -17.21875q7.546875 -8.828125 11.328125 -14.125q3.140625 -4.546875 7.265625 -5.828125q4.125 -1.28125 6.578125 1.78125q2.453125 3.0625 2.0625 7.109375q-0.375 4.046875 -2.9375 8.234375q-1.90625 3.265625 -6.3125 9.28125q-4.40625 6.0 -10.390625 13.03125q-5.96875 7.03125 -13.578125 14.375q-7.59375 7.328125 -15.96875 13.40625q-8.359375 6.078125 -17.5625 10.109375q-9.1875 4.046875 -18.390625 4.046875q-12.546875 0 -21.140625 -4.8125q-8.578125 -4.796875 -13.640625 -12.296875q-5.046875 -7.5 -7.0 -16.3125q-1.96875 -8.8125 -1.96875 -17.34375q0 -8.703125 3.8125 -21.25q3.828125 -12.546875 11.359375 -24.171875q7.546875 -11.640625 19.34375 -20.203125q11.796875 -8.578125 27.984375 -8.578125q10.015625 0 17.125 6.953125q7.125 6.953125 6.8125 18.625q0 5.3125 -1.78125 10.5q-1.78125 5.1875 -4.828125 9.3125q-3.03125 4.109375 -7.40625 6.6875q-4.359375 2.578125 -9.671875 2.578125q-5.5625 0 -8.171875 -3.78125q-2.59375 -3.796875 -3.078125 -7.8125q-0.484375 -4.03125 -0.015625 -7.75q0.46875 -3.734375 1.453125 -5.703125q2.09375 -2.9375 4.109375 -3.9375q2.03125 -1.015625 4.109375 -2.0625q0.453125 -0.234375 0.765625 -0.765625q0.328125 -0.546875 0.328125 -1.0625q0 -0.53125 0.03125 -0.484375q0.03125 0.03125 -0.3125 0.03125q-1.15625 0 -6.5 3.3125q-5.34375 3.296875 -11.328125 10.25q-5.96875 6.9375 -10.625 17.46875q-4.640625 10.515625 -4.890625 24.546875q-0.21875 7.625 1.953125 12.203125q2.1875 4.578125 5.390625 7.140625q3.203125 2.5625 7.203125 3.671875q4.0 1.109375 7.859375 1.109375zm198.07428 -36.65625q-6.078125 10.046875 -13.90625 20.796875q-7.828125 10.75 -16.703125 19.75q-8.859375 9.0 -18.6875 15.171875q-9.828125 6.1875 -20.140625 6.1875q-11.343689 0 -16.374939 -7.609375q-5.015625 -7.609375 -4.703125 -16.421875q0 -3.828125 0.734375 -6.78125q0.75 -2.96875 1.578125 -5.1875q0.828125 -2.234375 1.703125 -4.359375q0.890625 -2.125 1.625 -4.796875q0.671875 -2.1875 0.046875 -4.046875q-0.625 -1.875 1.59375 -2.671875q0.640625 2.71875 -3.109375 5.15625q-3.734375 2.4375 -9.390625 2.4375q-5.015625 0 -8.75 -4.296875q-3.734375 -4.296875 -3.734375 -10.265625q0 -5.0 2.328125 -8.234375q2.34375 -3.25 5.21875 -4.9375q2.890625 -1.6875 5.765625 -2.328125q2.890625 -0.640625 4.90625 -0.640625q1.0 0 3.65625 0.28125q2.65625 0.28125 3.8125 0.484375q7.390625 -5.953125 10.468689 -10.625q3.078125 -4.6875 1.21875 -7.40625q-0.984375 -1.59375 -2.46875 -1.65625q-1.468689 -0.0625 -4.187439 1.296875q-2.703125 1.34375 -5.75 3.78125q-3.03125 2.421875 -5.453125 4.609375q-5.046875 5.0625 -11.390625 12.171875q-6.328125 7.109375 -9.796875 11.0q-1.578125 6.75 -3.390625 15.28125q-1.546875 7.546875 -3.5 17.0625q-1.953125 9.5 -4.46875 21.625q-3.796875 1.90625 -5.765625 2.359375q-1.953125 0.453125 -3.40625 0.75q-1.96875 0.3125 -3.859375 0.3125q-2.21875 0 -4.890625 -0.1875q-2.671875 -0.171875 -4.953125 -2.46875q-2.28125 -2.28125 -2.46875 -6.078125q-0.203125 -3.8125 1.59375 -9.1875q2.046875 -6.65625 5.15625 -17.9375q3.109375 -11.28125 6.484375 -24.78125q3.390625 -13.5 6.890625 -28.1875q3.515625 -14.703125 6.625 -28.078125q3.125 -13.390625 5.3125 -24.125q2.203125 -10.75 3.234375 -16.8125q0.765625 -6.703125 1.546875 -12.921875q0.484375 -5.0 0.609375 -9.65625q0.125 -4.671875 -1.171875 -9.03125q3.59375 -3.59375 6.515625 -4.890625q2.921875 -1.296875 6.09375 -1.890625q2.96875 -0.796875 7.1875 -1.359375q4.875 -0.5625 9.171875 -0.1875q4.296875 0.359375 6.65625 4.578125q2.296814 3.828125 1.249939 10.796875q-1.031189 6.953125 -3.953064 18.109375q-3.6875 14.1875 -7.484375 25.859375q-3.796875 11.65625 -7.3125 21.828125q-3.515625 10.171875 -6.75 19.609375q-3.234375 9.421875 -9.8125 18.109375q1.953125 -10.15625 10.09375 -18.96875q8.140625 -8.8125 18.65625 -14.625q11.359314 -5.96875 19.156189 -5.96875q10.578125 0 15.203125 7.09375q4.625 7.078125 4.3125 15.96875q-0.296875 6.953125 -3.375 12.6875q-3.078125 5.71875 -7.3125 10.375q-4.234375 4.65625 -8.875 7.921875q-4.640625 3.265625 -5.703125 1.765625q2.015625 -0.96875 5.46875 3.484375q3.453125 4.4375 3.140625 11.171875q-0.296875 7.84375 -2.765625 13.15625q-2.453125 5.296875 -2.453125 8.640625q0.15625 2.015625 0.34375 2.265625q0.1875 0.25 2.015625 0.25q5.609375 0 12.5625 -5.421875q6.953125 -5.4375 13.546875 -13.03125q6.59375 -7.609375 12.3125 -15.28125q5.71875 -7.671875 9.0 -11.5q7.046875 -7.4375 13.046875 -3.0q6.0 4.4375 0.375 13.65625z" fill-rule="nonzero"/></g></svg>