<svg version="1.1" viewBox="0.0 0.0 1133.8582677165355 720.0" fill="none" stroke="none" stroke-linecap="square" stroke-miterlimit="10" xmlns:xlink="http://www.w3.org/1999/xlink" xmlns="http://www.w3.org/2000/svg"><clipPath id="p.0"><path d="m0 0l1133.8583 0l0 720.0l-1133.8583 0l0 -720.0z" clip-rule="nonzero"/></clipPath><g clip-path="url(#p.0)"><path fill="#000000" fill-opacity="0.0" d="m0 0l1133.8583 0l0 720.0l-1133.8583 0z" fill-rule="evenodd"/><path fill="#000000" fill-opacity="0.0" d="m-54.396965 27.102362l1242.6456 0l0 665.7953l-1242.6456 0z" fill-rule="evenodd"/><path fill="#ffd966" d="m71.07642 645.493q-22.703125 0.59375 -38.046875 -8.453125q-15.359373 -9.03125 -23.828123 -25.65625q-8.46875 -16.625 -10.65625 -38.875q-2.203125 -22.25 -0.03125 -48.21875q2.71875 -20.234375 9.734375 -41.765625q5.953125 -18.453125 18.140625 -40.65625q12.187498 -22.203125 36.109375 -46.765625q9.71875 2.4375 13.328125 4.25q3.609375 1.8125 6.53125 4.75q2.75 3.640625 3.875 7.046875q1.6875 9.296875 -3.171875 17.8125q-4.859375 8.5 -8.890625 16.546875q-11.09375 23.21875 -16.640625 43.84375q-5.53125 20.625 -7.03125 38.03125q-0.96875 14.859375 0.25 26.890625q1.21875 12.046875 3.5625 20.234375q2.34375 8.1875 2.921875 12.5q0.59375 4.3125 0.59375 0.6875q0 2.953125 0.625 -0.25q0.640625 -3.203125 3.0 -7.921875q2.9375 -4.890625 6.9375 -15.140625q4.015625 -10.25 8.625 -24.09375q4.609375 -13.859375 8.96875 -30.046875q4.375 -16.203125 7.984375 -32.671875q7.265625 -33.25 15.65625 -75.421875q8.390625 -42.1875 24.625008 -88.28125q5.203125 -19.234375 13.078125 -42.3125q6.265625 -19.875 15.953125 -46.328125q9.703125 -26.46875 21.640625 -55.828125q0 -5.984375 6.75 -9.546875q6.765625 -3.578125 12.828125 -6.359375q6.65625 -2.78125 14.703125 -5.4375q11.34375 -3.984375 19.3125 -4.671875q7.96875 -0.6875 13.546875 3.03125q5.5781097 3.703125 7.2343597 9.109375q1.65625 5.40625 1.65625 10.5625q1.046875 17.109375 1.296875 32.25q0.265625 15.140625 0.78125 26.515625q0.53125 13.734375 0.53125 24.6875q0.53125 14.921875 -1.578125 39.40625q-2.109375 24.46875 -4.453125 51.015625q-2.3437347 26.53125 -4.1406097 51.46875q-1.796875 24.9375 -0.765625 41.3125q0 8.6875 0.75 15.953125q0.75 7.25 -5.703125 8.0q-1.78125 -14.171875 6.59375 -34.875q8.39061 -20.703125 16.749985 -39.765625q8.359375 -19.078125 15.609375 -35.390625q7.25 -16.3125 11.40625 -27.203125q6.359375 -14.84375 16.8125 -37.3125q10.453125 -22.484375 21.140625 -44.90625q10.703125 -22.421875 19.875 -41.3125q9.171875 -18.890625 13.53125 -26.515625q4.328125 -7.1875 13.140625 -12.0625q8.828125 -4.875 18.078125 -8.234375q9.25 -3.359375 18.3125 -4.921875q9.0625 -1.5625 13.265625 0.109375q8.28125 1.90625 12.515625 5.78125q4.25 3.859375 5.46875 6.28125q1.71875 3.4375 2.359375 9.5625q0.65625 6.125 -0.46875 17.328125q-1.078125 12.875 -6.078125 38.65625q-5.0 25.78125 -12.046875 58.390625q-7.03125 32.59375 -15.109375 69.546875q-8.0625 36.953125 -15.34375 72.546875q-7.265625 35.59375 -12.6875 66.59375q-5.421875 30.984375 -6.953125 51.78125q-0.96875 22.71875 2.953125 39.953125q1.421875 7.078125 4.078125 13.28125q2.65625 6.21875 6.65625 10.421875q4.015625 4.21875 9.484375 6.15625q5.46875 1.953125 46.484375 -2.375q-41.421875 28.15625 -55.125 32.71875q-13.6875 4.5625 -26.828125 4.5625q-14.8125 0.609375 -26.484375 -4.625q-11.65625 -5.21875 -19.625 -14.71875q-7.953125 -9.484375 -11.53125 -22.265625q-3.5625 -12.765625 -2.390625 -27.796875q1.078125 -13.0 6.859375 -41.921875q5.78125 -28.921875 13.875 -65.203125q8.09375 -36.28125 17.734375 -75.65625q9.640625 -39.390625 18.234375 -74.03125q8.609375 -34.640625 14.828125 -59.546875q6.234375 -24.90625 7.734375 -32.390625q1.0 -6.03125 1.796875 -11.65625q0.8125 -5.640625 10.046875 -8.1875q2.203125 14.1875 -5.34375 28.78125q-7.546875 14.578125 -15.859375 31.1875q-8.296875 16.59375 -16.875 34.515625q-8.5625 17.921875 -16.375 34.609375q-12.984375 26.984375 -25.421875 55.21875q-12.421875 28.234375 -22.25 53.5625q-9.8125 25.3125 -16.15625 45.078125q-6.328125 19.765625 -7.25 29.40625l0 6.90625q0 2.859375 0.21875 6.453125q0.234375 3.578125 2.5625 11.78125l-26.39061 20.46875q-6.125 2.046875 -10.15625 3.28125q-4.03125 1.234375 -8.40625 1.234375q-17.125 0 -25.609375 -16.96875q-6.875 -12.59375 -12.265625 -47.046875q-5.390625 -34.46875 -3.265625 -83.734375q1.046875 -24.171875 3.40625 -48.78125q2.359375 -24.609375 4.703125 -47.015625q2.34375 -22.421875 4.40625 -41.734375q2.0625 -19.3125 2.0625 -33.140625q0.484375 -9.921875 -0.5 -18.109375q-0.984375 -8.203125 5.34375 -9.015625q4.09375 7.046875 -1.5625 27.375q-5.65625 20.3125 -11.890625 45.234375q-6.21875 24.90625 -12.71875 52.484375q-6.5 27.578125 -12.5 53.109375q-5.984375 25.515625 -11.203125 47.15625q-5.21875 21.625 -8.34375 34.671875q-5.171875 20.671875 -10.40625 47.390625q-5.234375 26.703125 -13.359375 51.3125q-8.109383 24.609375 -22.250008 43.15625q-14.125 18.546875 -37.890625 19.171875zm518.1733 -410.1875q-1.984375 7.3125 -7.40625 14.015625q-5.421875 6.703125 -12.171875 10.875q-6.734375 4.15625 -15.203125 5.703125q-8.453125 1.53125 -14.90625 -4.015625q-13.8125 -10.515625 -14.515625 -23.359375q-0.6875 -12.84375 5.59375 -23.203125q6.28125 -10.359375 15.515625 -17.4375q9.234375 -7.078125 16.953125 -8.484375q9.640625 -1.75 15.84375 3.625q6.203125 5.375 8.90625 12.46875q2.703125 7.078125 3.015625 15.234375q0.3125 8.140625 -1.625 14.578125zm-86.328125 103.375q4.3125 -5.15625 13.046875 -7.65625q8.75 -2.515625 17.046875 -3.890625q8.3125 -1.390625 16.15625 -1.703125q7.859375 -0.3125 12.015625 1.765625q5.0 5.0 1.140625 17.859375q-3.859375 12.859375 -8.578125 27.015625q-4.71875 14.15625 -9.890625 28.90625q-5.171875 14.734375 -7.703125 23.84375q-2.640625 9.484375 -6.28125 21.171875q-3.625 11.671875 -6.390625 22.46875q-2.765625 10.796875 -3.65625 19.1875q-0.875 8.375 0.78125 11.671875q1.828125 4.421875 2.9375 5.25q1.109375 0.828125 1.984375 0.828125q7.71875 0 22.265625 -10.484375q14.5625 -10.5 30.609375 -26.046875q16.046875 -15.546875 29.828125 -31.625q13.796875 -16.09375 20.5 -25.875q5.84375 -7.296875 13.4375 -9.984375q7.609375 -2.6875 13.84375 1.84375q6.25 4.515625 6.6875 12.4375q0.4375 7.90625 -4.4375 16.28125q-8.640625 15.140625 -25.140625 35.609375q-16.484375 20.46875 -35.078125 39.34375q-18.59375 18.859375 -37.328125 32.84375q-18.71875 13.96875 -32.15625 14.59375q-10.625 0.625 -20.71875 -3.359375q-10.09375 -3.96875 -18.203125 -10.859375q-8.09375 -6.90625 -13.640625 -16.453125q-5.53125 -9.546875 -6.171875 -20.125q-1.625 -13.546875 -0.03125 -36.8125q1.609375 -23.28125 5.859375 -47.4375q4.265625 -24.15625 11.078125 -46.515625q6.8125 -22.375 16.1875 -34.09375zm215.30585 175.0625q13.65625 0 31.84375 -11.890625q18.203125 -11.890625 36.265625 -28.671875q18.0625 -16.796875 33.140625 -34.4375q15.09375 -17.65625 22.65625 -28.25q6.28125 -9.0625 14.53125 -11.640625q8.265625 -2.59375 13.171875 3.5625q4.90625 6.15625 4.140625 14.265625q-0.765625 8.109375 -5.90625 16.4375q-3.8125 6.546875 -12.625 18.5625q-8.796875 12.0 -20.75 26.078125q-11.953125 14.078125 -27.15625 28.75q-15.203125 14.65625 -31.953125 26.8125q-16.734375 12.15625 -35.140625 20.234375q-18.390625 8.09375 -36.8125 8.09375q-25.078125 0 -42.265625 -9.609375q-17.171875 -9.609375 -27.28125 -24.625q-10.109375 -15.03125 -14.015625 -32.65625q-3.921875 -17.625 -3.921875 -34.671875q0 -17.375 7.640625 -42.484375q7.640625 -25.125 22.6875 -48.390625q15.0625 -23.28125 38.65625 -40.421875q23.609375 -17.140625 56.0 -17.140625q20.0625 0 34.296875 13.921875q14.234375 13.90625 13.625 37.234375q0 10.65625 -3.5625 21.03125q-3.5625 10.375 -9.65625 18.609375q-6.09375 8.21875 -14.828125 13.40625q-8.734375 5.171875 -19.34375 5.171875q-11.171875 0 -16.375 -7.609375q-5.203125 -7.609375 -6.171875 -15.625q-0.953125 -8.03125 -0.015625 -15.5q0.9375 -7.484375 2.90625 -11.40625q4.15625 -5.859375 8.21875 -7.890625q4.0625 -2.03125 8.234375 -4.109375q0.890625 -0.453125 1.515625 -1.53125q0.640625 -1.078125 0.640625 -2.140625q0 -1.0625 0.078125 -0.953125q0.09375 0.09375 -0.59375 0.09375q-2.328125 0 -13.015625 6.59375q-10.6875 6.59375 -22.625 20.484375q-11.921875 13.890625 -21.234375 34.953125q-9.3125 21.046875 -9.796875 49.109375q-0.46875 15.21875 3.890625 24.390625q4.375 9.15625 10.765625 14.28125q6.40625 5.125 14.40625 7.359375q8.015625 2.21875 15.734375 2.21875zm396.17004 -73.296875q-12.171875 20.078125 -27.8125 41.578125q-15.640625 21.484375 -33.390625 39.5q-17.75 18.015625 -37.40625 30.359375q-19.65625 12.359375 -40.28125 12.359375q-22.718811 0 -32.75006 -15.21875q-10.03125 -15.203125 -9.4375 -32.828125q0 -7.65625 1.484375 -13.59375q1.484375 -5.9375 3.15625 -10.375q1.671875 -4.453125 3.40625 -8.703125q1.75 -4.25 3.21875 -9.609375q1.328125 -4.34375 0.078125 -8.078125q-1.234375 -3.734375 3.21875 -5.34375q1.3125 5.453125 -6.171875 10.34375q-7.46875 4.875 -18.8125 4.875q-10.046875 0 -17.53125 -8.59375q-7.46875 -8.609375 -7.46875 -20.578125q0 -9.984375 4.6875 -16.46875q4.6875 -6.484375 10.421875 -9.859375q5.75 -3.390625 11.53125 -4.671875q5.78125 -1.28125 9.8125 -1.28125q2.0 0 7.3125 0.5625q5.328125 0.5625 7.609375 0.96875q14.78125 -11.890625 20.953186 -21.25q6.1875 -9.359375 2.453125 -14.8125q-1.953125 -3.171875 -4.921936 -3.296875q-2.953125 -0.125 -8.375 2.59375q-5.40625 2.703125 -11.484375 7.5625q-6.0625 4.859375 -10.9375 9.234375q-10.078125 10.09375 -22.765625 24.328125q-12.6875 14.21875 -19.609375 22.015625q-3.140625 13.484375 -6.765625 30.5625q-3.125 15.09375 -7.03125 34.09375q-3.90625 19.0 -8.875 43.28125q-7.625 3.8125 -11.5625 4.71875q-3.9375 0.90625 -6.765625 1.46875q-3.9375 0.671875 -7.765625 0.671875q-4.46875 0 -9.828125 -0.390625q-5.34375 -0.390625 -9.90625 -4.96875q-4.578125 -4.5625 -4.953125 -12.15625q-0.375 -7.59375 3.203125 -18.359375q4.109375 -13.328125 10.328125 -35.875q6.21875 -22.546875 12.96875 -49.5625q6.75 -27.03125 13.765625 -56.40625q7.03125 -29.390625 13.265625 -56.15625q6.234375 -26.765625 10.640625 -48.234375q4.40625 -21.484375 6.421875 -33.625q1.546875 -13.390625 3.09375 -25.828125q1.015625 -9.984375 1.25 -19.328125q0.234375 -9.34375 -2.375 -18.0625q7.234375 -7.1875 13.078125 -9.78125q5.84375 -2.609375 12.203125 -3.765625q5.90625 -1.625 14.34375 -2.734375q9.765625 -1.15625 18.390625 -0.390625q8.625 0.75 13.296875 9.1875q4.578125 7.625 2.5 21.578125q-2.0625 13.9375 -7.90625 36.234375q-7.34375 28.375 -14.953125 51.703125q-7.609375 23.328125 -14.65625 43.671875q-7.03125 20.328125 -13.5 39.1875q-6.453125 18.859375 -19.640625 36.25q3.90625 -20.328125 20.1875 -37.953125q16.28125 -17.640625 37.328125 -29.265625q22.734436 -11.9375 38.328186 -11.9375q21.171875 0 30.421875 14.1875q9.25 14.1875 8.625 31.96875q-0.609375 13.90625 -6.78125 25.359375q-6.15625 11.4375 -14.625 20.75q-8.453125 9.3125 -17.71875 15.859375q-9.265625 6.53125 -11.40625 3.546875q4.015625 -1.9375 10.9375 6.96875q6.921875 8.890625 6.265625 22.328125q-0.578125 15.6875 -5.5 26.296875q-4.921875 10.609375 -4.921875 17.296875q0.3125 4.03125 0.6875 4.53125q0.375 0.484375 4.015625 0.484375q11.203125 0 25.109375 -10.84375q13.90625 -10.84375 27.078125 -26.046875q13.1875 -15.203125 24.625 -30.5625q11.453125 -15.359375 18.03125 -23.03125q14.0625 -14.890625 26.0625 -6.0q12.015625 8.890625 0.796875 27.359375z" fill-rule="nonzero"/></g></svg>